#!OML:ASF H:\MichaelJackson\Top Level 1\Subject 1\Session 1\male.ASF
:FULLY-SPECIFIED
:DEGREES
694
root 0.632089 16.6276 26.961 -166.82 -50.9048 -186.5
lowerback 5.78066 2.13876 -5.64957
upperback 2.35746 2.40933 -1.46974
thorax -0.976992 1.13618 1.49002
lowerneck -9.82848 4.84355 7.55619
upperneck 16.7434 6.20794 -6.15573
head 7.17491 2.84631 -2.67825
rclavicle 1.98785e-016 -6.21202e-015
rhumerus 0.647334 1.304 -74.9736
rradius 93.3235
rwrist 35.7717
rhand -58.6478 -33.5266
rfingers 7.12502
rthumb -30.8637 -420.954
lclavicle 1.98785e-016 -6.21202e-015
lhumerus -9.07049 -46.8091 59.2516
lradius 82.1672
lwrist 14.3855
lhand 8.153 23.4255
lfingers 7.12502
lthumb 33.3725 50.3463
rfemur -52.7777 -3.27113 20.6069
rtibia 68.5282
rfoot 12.6594 11.2733
rtoes 21.3207
lfemur -22.9459 10.8933 -22.1282
ltibia 45.9564
lfoot -26.8426 -7.45857
ltoes 14.0241
695
root 0.752434 16.6084 27.0236 -166.917 -51.1529 -186.415
lowerback 5.86135 2.20377 -5.67006
upperback 2.37715 2.48758 -1.47856
thorax -1.00731 1.17474 1.48412
lowerneck -9.88787 4.82592 7.39453
upperneck 16.7117 6.20622 -6.13901
head 7.16888 2.83676 -2.64516
rclavicle 1.68346e-014 9.49197e-015
rhumerus -0.294913 0.585605 -76.2711
rradius 93.0042
rwrist 35.5102
rhand -58.7225 -33.9917
rfingers 7.12502
rthumb -30.9348 -421.406
lclavicle 1.68346e-014 9.49197e-015
lhumerus -6.46709 -45.5077 56.9011
lradius 82.7911
lwrist 13.4139
lhand 6.58075 22.8756
lfingers 7.12502
lthumb 31.8765 50.1062
rfemur -52.5309 -3.20224 20.4127
rtibia 70.5159
rfoot 12.9194 12.1581
rtoes 22.079
lfemur -23.6581 10.5838 -21.8537
ltibia 46.3787
lfoot -26.502 -8.34818
ltoes 15.8159
696
root 0.872111 16.59 27.0836 -167.007 -51.4714 -186.343
lowerback 5.93095 2.2655 -5.67885
upperback 2.39816 2.56377 -1.47374
thorax -1.03006 1.21235 1.48617
lowerneck -9.96265 4.80329 7.19574
upperneck 16.7027 6.20336 -6.12064
head 7.17151 2.82387 -2.60536
rclavicle -1.00498e-013 -1.54555e-014
rhumerus -1.23594 -0.141963 -77.4793
rradius 92.6363
rwrist 35.1202
rhand -58.7588 -34.4503
rfingers 7.12502
rthumb -30.9695 -421.858
lclavicle -1.00498e-013 -1.54555e-014
lhumerus -4.09513 -44.0095 54.9371
lradius 83.3332
lwrist 12.2321
lhand 4.64588 22.322
lfingers 7.12502
lthumb 30.0322 49.9035
rfemur -52.15 -3.14839 20.171
rtibia 72.4055
rfoot 13.198 12.853
rtoes 22.8012
lfemur -24.3938 10.1647 -21.6089
ltibia 46.8233
lfoot -26.1226 -8.94662
ltoes 17.1244
697
root 0.990974 16.5723 27.1409 -167.092 -51.8431 -186.276
lowerback 5.98374 2.32698 -5.67231
upperback 2.41869 2.64232 -1.46281
thorax -1.04377 1.2512 1.48631
lowerneck -10.0445 4.77574 6.97952
upperneck 16.7102 6.19614 -6.09788
head 7.17974 2.80775 -2.56164
rclavicle -1.39522e-014 -2.55935e-014
rhumerus -2.17809 -0.866101 -78.6123
rradius 92.2352
rwrist 34.5448
rhand -58.7552 -35.0517
rfingers 7.12502
rthumb -30.966 -422.46
lclavicle -1.39522e-014 -2.55935e-014
lhumerus -1.97974 -42.3536 53.3569
lradius 83.8374
lwrist 10.8615
lhand 2.28925 21.7628
lfingers 7.12502
lthumb 27.7812 49.7297
rfemur -51.6353 -3.07857 19.8794
rtibia 74.1758
rfoot 13.4834 13.3905
rtoes 23.3785
lfemur -25.1377 9.61098 -21.3814
ltibia 47.2709
lfoot -25.7579 -9.22711
ltoes 17.9609
698
root 1.10872 16.5552 27.1955 -167.186 -52.2477 -186.196
lowerback 6.01467 2.39837 -5.64319
upperback 2.43674 2.7377 -1.4439
thorax -1.04839 1.29867 1.48153
lowerneck -10.1339 4.73881 6.75065
upperneck 16.7366 6.1768 -6.06542
head 7.19393 2.78542 -2.51383
rclavicle 1.10611e-013 -5.06901e-015
rhumerus -3.12214 -1.60621 -79.6789
rradius 91.8063
rwrist 33.7797
rhand -58.7216 -35.7158
rfingers 7.12502
rthumb -30.934 -423.13
lclavicle 1.10611e-013 -5.06901e-015
lhumerus -0.111853 -40.57 52.1518
lradius 84.3313
lwrist 9.31354
lhand -0.447667 21.1409
lfingers 7.12502
lthumb 25.1615 49.5025
rfemur -50.9862 -2.96221 19.5473
rtibia 75.8025
rfoot 13.7656 13.8281
rtoes 23.7048
lfemur -25.8718 8.9194 -21.1461
ltibia 47.7003
lfoot -25.4253 -9.25827
ltoes 18.4961
